<?xml version="1.0" encoding="UTF-8"?>
<svg xmlns="http://www.w3.org/2000/svg" xmlns:xlink="http://www.w3.org/1999/xlink" width="100px" height="75px" viewBox="0 0 99 75" version="1.1">
<g id="surface1">
<path style=" stroke:none;fill-rule:nonzero;fill:rgb(0%,0%,0%);fill-opacity:1;" d="M 64.535156 16.460938 C 63.660156 16.582031 62.457031 16.894531 61.1875 17.292969 C 58.734375 18.089844 55.507812 20.1875 53.636719 22.199219 C 51.472656 24.539062 49.464844 28.074219 50.289062 28.074219 C 50.390625 28.074219 50.734375 28.453125 51.078125 28.941406 C 51.765625 29.910156 51.9375 29.980469 52.089844 29.40625 C 52.316406 28.664062 53.414062 26.632812 54.066406 25.75 C 55.285156 24.085938 57.34375 22.128906 58.613281 21.417969 C 58.90625 21.261719 59.402344 20.96875 59.730469 20.777344 C 60.519531 20.292969 61.71875 19.824219 63.300781 19.375 C 64.382812 19.078125 65.101562 19.011719 67.28125 19.011719 C 70.9375 18.992188 72.792969 19.460938 75.332031 21.003906 C 75.914062 21.367188 76.445312 21.660156 76.5 21.660156 C 76.652344 21.660156 78.335938 23.117188 79.089844 23.914062 C 82.023438 26.964844 83.757812 31.246094 83.757812 35.386719 C 83.757812 37.171875 83.140625 40.445312 82.589844 41.519531 C 82.503906 41.710938 82.265625 42.195312 82.058594 42.628906 C 81.183594 44.5 80.566406 45.367188 78.867188 47.082031 C 77.425781 48.539062 75.605469 49.855469 74.179688 50.445312 C 73.734375 50.636719 73.21875 50.859375 73.03125 50.949219 C 70.25 52.125 65.804688 52.210938 62.183594 51.136719 C 61.085938 50.808594 58.941406 49.664062 57.753906 48.78125 C 56.589844 47.898438 54.597656 45.90625 54.046875 45.054688 L 53.773438 44.640625 L 52.675781 44.953125 C 52.074219 45.125 51.472656 45.296875 51.355469 45.332031 C 51.027344 45.4375 52.488281 47.429688 54.015625 48.953125 C 57.515625 52.4375 61.773438 54.292969 66.765625 54.535156 C 72.671875 54.8125 78.421875 52.054688 82.386719 47.03125 C 85.476562 43.132812 86.898438 37.464844 86.074219 32.472656 C 85.011719 26.097656 81.21875 20.917969 75.605469 18.195312 C 72.996094 16.914062 70.988281 16.445312 67.96875 16.375 C 66.59375 16.339844 65.050781 16.375 64.535156 16.460938 Z M 64.535156 16.460938 "/>
<path style=" stroke:none;fill-rule:nonzero;fill:rgb(0%,0%,0%);fill-opacity:1;" d="M 19.480469 18.542969 C 19.015625 18.628906 17.285156 18.699219 15.671875 18.699219 C 12.359375 18.714844 11.824219 18.90625 13.902344 19.339844 C 14.675781 19.496094 15.378906 20.03125 15.652344 20.691406 C 15.980469 21.46875 15.980469 41.261719 15.652344 42.039062 C 15.429688 42.59375 15.105469 42.820312 14.160156 43.113281 C 13.886719 43.203125 13.644531 43.375 13.644531 43.511719 C 13.644531 43.667969 13.816406 43.738281 14.160156 43.722656 C 14.453125 43.6875 17.335938 43.667969 20.5625 43.667969 C 24.21875 43.667969 26.757812 43.601562 27.257812 43.476562 C 29.8125 42.871094 32.0625 41.605469 33.828125 39.769531 C 34.394531 39.199219 34.84375 38.695312 34.84375 38.644531 C 34.84375 38.503906 33.882812 37.949219 33.65625 37.949219 C 33.554688 37.949219 33.261719 38.28125 33.023438 38.679688 C 31.785156 40.671875 29.296875 42.265625 26.65625 42.734375 C 25.386719 42.976562 24.886719 42.976562 23.429688 42.800781 C 21.195312 42.527344 19.550781 42.039062 19.035156 41.484375 L 18.621094 41.035156 L 18.570312 31.296875 C 18.554688 25.941406 18.589844 21.261719 18.65625 20.882812 C 18.777344 20.292969 18.914062 20.136719 19.566406 19.789062 C 20.234375 19.460938 20.578125 19.410156 22.570312 19.410156 C 25.761719 19.410156 27.789062 19.996094 29.726562 21.453125 C 32.011719 23.1875 33.316406 25.28125 34.15625 28.558594 C 34.449219 29.769531 34.515625 30.464844 34.480469 32.71875 L 34.464844 35.4375 L 35.269531 35.765625 C 36.214844 36.164062 36.199219 36.183594 36.746094 34.398438 C 37.261719 32.699219 37.261719 28.992188 36.765625 27.363281 C 35.890625 24.519531 34.652344 22.683594 32.578125 21.070312 C 31.03125 19.894531 28.457031 18.921875 25.867188 18.558594 C 24.371094 18.351562 20.800781 18.335938 19.480469 18.542969 Z M 19.480469 18.542969 "/>
<path style=" stroke:none;fill-rule:nonzero;fill:rgb(0%,0%,0%);fill-opacity:1;" d="M 44.195312 28.574219 C 42.738281 28.957031 41.210938 30.222656 40.644531 31.503906 C 40.128906 32.664062 40.539062 33.273438 42.015625 33.53125 C 42.839844 33.671875 42.875 33.582031 42.566406 32.109375 C 42.1875 30.359375 43.082031 29.285156 44.917969 29.285156 C 45.859375 29.285156 47.0625 29.667969 47.613281 30.136719 C 48.28125 30.722656 48.574219 31.796875 48.574219 33.792969 L 48.574219 35.664062 L 47.851562 35.785156 C 43.75 36.390625 41.296875 37.585938 40.574219 39.320312 C 40.164062 40.273438 40.335938 41.746094 40.917969 42.613281 C 41.46875 43.410156 42.773438 44.015625 43.957031 44.015625 C 44.847656 44.015625 46.511719 43.445312 47.765625 42.699219 C 48.316406 42.371094 48.796875 42.109375 48.847656 42.109375 C 48.882812 42.109375 49.191406 42.421875 49.535156 42.785156 C 50.273438 43.632812 51.0625 43.910156 52.144531 43.753906 C 53.550781 43.546875 54.613281 42.714844 53.34375 42.820312 C 52.488281 42.90625 51.78125 42.664062 51.40625 42.144531 C 51.078125 41.710938 51.0625 41.328125 50.976562 36.390625 L 50.890625 31.105469 L 50.375 30.34375 C 50.066406 29.875 49.5 29.371094 48.96875 29.078125 C 48.179688 28.628906 47.851562 28.558594 46.394531 28.488281 C 45.464844 28.453125 44.488281 28.488281 44.195312 28.574219 Z M 48.625 36.425781 C 48.796875 36.960938 48.523438 41 48.265625 41.503906 C 47.785156 42.457031 46.769531 42.976562 45.363281 42.976562 C 43.578125 42.976562 42.703125 42.09375 42.6875 40.273438 C 42.667969 39.285156 42.738281 39.09375 43.199219 38.523438 C 43.785156 37.777344 44.847656 36.980469 45.484375 36.824219 C 47.886719 36.234375 48.523438 36.148438 48.625 36.425781 Z M 48.625 36.425781 "/>
<path style=" stroke:none;fill-rule:nonzero;fill:rgb(0%,0%,0%);fill-opacity:1;" d="M 53.222656 36.148438 C 53.222656 36.339844 53.277344 36.390625 53.328125 36.253906 C 53.378906 36.132812 53.363281 35.976562 53.308594 35.921875 C 53.257812 35.855469 53.207031 35.957031 53.222656 36.148438 Z M 53.222656 36.148438 "/>
<path style=" stroke:none;fill-rule:nonzero;fill:rgb(0%,0%,0%);fill-opacity:1;" d="M 31.871094 36.164062 C 31.71875 36.199219 31.617188 36.320312 31.667969 36.410156 C 31.71875 36.496094 31.667969 36.53125 31.546875 36.476562 C 31.238281 36.375 30.328125 37.207031 29.984375 37.933594 C 29.523438 38.886719 29.640625 40.621094 30.191406 40.515625 C 30.398438 40.480469 30.464844 40.238281 30.464844 39.511719 C 30.484375 38.992188 30.601562 38.367188 30.722656 38.125 C 30.859375 37.882812 30.964844 37.621094 30.980469 37.515625 C 30.980469 37.429688 31.117188 37.34375 31.289062 37.34375 C 31.460938 37.34375 31.667969 37.222656 31.753906 37.085938 C 31.855469 36.910156 32.234375 36.824219 33.023438 36.824219 C 34.121094 36.824219 34.15625 36.839844 34.929688 37.605469 C 35.460938 38.125 35.75 38.316406 35.871094 38.191406 C 36.128906 37.933594 35.769531 37.015625 35.496094 37.1875 C 35.390625 37.257812 35.355469 37.238281 35.425781 37.117188 C 35.496094 37.015625 35.21875 36.738281 34.789062 36.496094 C 34.070312 36.0625 32.816406 35.921875 31.871094 36.164062 Z M 31.871094 36.164062 "/>
<path style=" stroke:none;fill-rule:nonzero;fill:rgb(0%,0%,0%);fill-opacity:1;" d="M 53.378906 37.308594 C 53.378906 38.367188 54.941406 42.421875 55.644531 43.183594 C 55.765625 43.304688 56.054688 43.6875 56.296875 44.015625 C 57.722656 46.042969 60.605469 48.210938 62.90625 48.953125 C 64.792969 49.5625 65.394531 49.648438 67.796875 49.648438 C 69.667969 49.648438 70.542969 49.5625 71.316406 49.335938 C 72.308594 49.042969 74.660156 48.019531 74.832031 47.8125 C 74.886719 47.742188 75.089844 47.65625 75.296875 47.585938 C 75.484375 47.515625 75.914062 47.238281 76.242188 46.960938 C 76.550781 46.683594 76.910156 46.441406 77.03125 46.441406 C 77.132812 46.441406 77.238281 46.390625 77.238281 46.304688 C 77.238281 46.234375 77.613281 45.785156 78.058594 45.296875 C 78.507812 44.8125 79.054688 44.15625 79.296875 43.859375 C 79.828125 43.167969 81.21875 40.6875 81.132812 40.601562 C 81.082031 40.566406 80.839844 40.828125 80.566406 41.191406 C 79.640625 42.421875 77.921875 43.980469 76.808594 44.605469 C 76.53125 44.761719 76.019531 45.054688 75.691406 45.261719 C 74.867188 45.765625 73.082031 46.425781 71.742188 46.738281 C 70.183594 47.101562 66.011719 47.101562 64.535156 46.71875 C 62.992188 46.335938 61.136719 45.679688 60.898438 45.4375 C 60.777344 45.316406 60.621094 45.230469 60.535156 45.230469 C 60.175781 45.230469 57.859375 43.511719 56.878906 42.542969 C 55.730469 41.398438 54.390625 39.320312 53.894531 37.933594 C 53.5 36.859375 53.378906 36.703125 53.378906 37.308594 Z M 53.378906 37.308594 "/>
<path style=" stroke:none;fill-rule:nonzero;fill:rgb(0%,0%,0%);fill-opacity:1;" d="M 32.113281 42.265625 C 31.925781 42.386719 31.941406 42.457031 32.214844 42.613281 C 32.40625 42.699219 32.59375 42.769531 32.628906 42.714844 C 32.664062 42.679688 32.664062 43.269531 32.609375 44.015625 C 32.558594 44.761719 32.492188 45.402344 32.4375 45.453125 C 32.386719 45.488281 31.273438 45.886719 29.949219 46.320312 C 25.128906 47.914062 23.324219 48.625 25.523438 48.070312 C 26.070312 47.933594 26.621094 47.792969 26.742188 47.792969 C 26.84375 47.777344 26.945312 47.722656 26.945312 47.65625 C 26.945312 47.601562 27.085938 47.550781 27.257812 47.535156 C 27.410156 47.515625 27.976562 47.394531 28.492188 47.257812 C 29.007812 47.101562 30.171875 46.789062 31.066406 46.5625 C 31.957031 46.320312 32.835938 46.078125 32.988281 46.007812 C 33.332031 45.871094 33.539062 44.585938 33.433594 43.132812 C 33.382812 42.230469 33.367188 42.195312 32.867188 42.144531 C 32.59375 42.125 32.25 42.179688 32.113281 42.265625 Z M 32.113281 42.265625 "/>
<path style=" stroke:none;fill-rule:nonzero;fill:rgb(0%,0%,0%);fill-opacity:1;" d="M 35.496094 45.695312 C 35.238281 46.027344 35.304688 46.058594 36.9375 46.527344 C 38.839844 47.066406 44.007812 48.660156 44.882812 48.988281 C 45.261719 49.128906 45.722656 49.265625 45.929688 49.300781 C 46.117188 49.320312 46.425781 49.441406 46.617188 49.542969 C 47.046875 49.820312 50.511719 50.949219 50.617188 50.859375 C 50.648438 50.808594 50.339844 50.636719 49.929688 50.460938 C 49.515625 50.273438 48.574219 49.839844 47.851562 49.492188 C 47.132812 49.144531 46.410156 48.867188 46.273438 48.867188 C 46.136719 48.867188 45.964844 48.78125 45.914062 48.695312 C 45.859375 48.589844 45.707031 48.519531 45.570312 48.519531 C 45.433594 48.519531 45.125 48.433594 44.847656 48.332031 C 42.738281 47.464844 40.042969 46.597656 37.195312 45.851562 C 35.941406 45.523438 35.667969 45.488281 35.496094 45.695312 Z M 35.496094 45.695312 "/>
<path style=" stroke:none;fill-rule:nonzero;fill:rgb(0%,0%,0%);fill-opacity:1;" d="M 23.996094 48.46875 C 24.113281 48.519531 24.269531 48.503906 24.320312 48.453125 C 24.390625 48.398438 24.285156 48.347656 24.097656 48.367188 C 23.910156 48.367188 23.859375 48.417969 23.996094 48.46875 Z M 23.996094 48.46875 "/>
<path style=" stroke:none;fill-rule:nonzero;fill:rgb(0%,0%,0%);fill-opacity:1;" d="M 14.761719 55.695312 C 14.761719 57.082031 14.828125 58.242188 14.898438 58.292969 C 14.964844 58.328125 15.722656 58.398438 16.5625 58.417969 C 17.796875 58.449219 18.109375 58.398438 18.109375 58.207031 C 18.109375 58.015625 17.796875 57.964844 16.855469 57.949219 C 16.167969 57.929688 15.550781 57.863281 15.480469 57.792969 C 15.414062 57.722656 15.363281 56.683594 15.363281 55.488281 C 15.363281 53.53125 15.328125 53.285156 15.070312 53.234375 C 14.777344 53.183594 14.761719 53.390625 14.761719 55.695312 Z M 14.761719 55.695312 "/>
<path style=" stroke:none;fill-rule:nonzero;fill:rgb(0%,0%,0%);fill-opacity:1;" d="M 20.886719 54.636719 C 19.085938 58.539062 19.136719 58.398438 19.496094 58.398438 C 19.636719 58.398438 19.875 58.121094 20.011719 57.773438 C 20.148438 57.429688 20.492188 56.683594 20.769531 56.09375 C 21.058594 55.523438 21.28125 54.949219 21.28125 54.828125 C 21.28125 54.5 21.78125 54.066406 22.054688 54.171875 C 22.175781 54.222656 22.261719 54.359375 22.226562 54.464844 C 22.125 54.742188 23.71875 58.433594 23.941406 58.449219 C 24.304688 58.46875 24.199219 57.878906 23.617188 56.683594 C 23.292969 56.007812 23.015625 55.417969 23.015625 55.402344 C 23.015625 55.382812 22.949219 55.140625 22.84375 54.882812 C 22.742188 54.605469 22.65625 54.308594 22.65625 54.222656 C 22.65625 54.136719 22.585938 54.066406 22.5 54.066406 C 22.414062 54.066406 22.296875 53.875 22.242188 53.632812 C 22.039062 52.785156 21.574219 53.128906 20.886719 54.636719 Z M 20.886719 54.636719 "/>
<path style=" stroke:none;fill-rule:nonzero;fill:rgb(0%,0%,0%);fill-opacity:1;" d="M 25.503906 54.429688 C 25.316406 56.128906 25.539062 57.359375 26.140625 57.914062 C 27.050781 58.796875 28.285156 58.761719 29.230469 57.863281 C 29.761719 57.339844 29.777344 57.289062 29.832031 55.503906 C 29.882812 54.273438 29.847656 53.632812 29.710938 53.496094 C 29.351562 53.128906 29.179688 53.738281 29.179688 55.417969 C 29.179688 56.789062 29.125 57.132812 28.816406 57.550781 C 28.335938 58.242188 27.273438 58.261719 26.570312 57.585938 C 26.105469 57.132812 26.089844 57.082031 26.089844 55.246094 C 26.089844 53.773438 26.039062 53.375 25.847656 53.375 C 25.695312 53.375 25.574219 53.703125 25.503906 54.429688 Z M 25.503906 54.429688 "/>
<path style=" stroke:none;fill-rule:nonzero;fill:rgb(0%,0%,0%);fill-opacity:1;" d="M 31.667969 53.546875 C 31.617188 53.632812 31.53125 54.707031 31.476562 55.9375 C 31.390625 57.773438 31.425781 58.191406 31.632812 58.382812 C 32.011719 58.695312 32.128906 58.15625 32.078125 56.355469 C 32.027344 55.089844 32.0625 54.847656 32.300781 54.792969 C 32.457031 54.757812 32.730469 54.984375 32.953125 55.347656 C 33.160156 55.695312 33.402344 55.972656 33.484375 55.972656 C 33.570312 55.972656 33.640625 56.078125 33.640625 56.214844 C 33.640625 56.355469 33.8125 56.597656 34.019531 56.734375 C 34.222656 56.890625 34.34375 57.011719 34.277344 57.011719 C 34.191406 57.011719 34.242188 57.117188 34.363281 57.253906 C 34.480469 57.375 34.808594 57.742188 35.066406 58.050781 C 35.339844 58.363281 35.632812 58.539062 35.71875 58.449219 C 35.785156 58.382812 35.871094 57.289062 35.871094 56.058594 C 35.90625 53.21875 35.921875 53.375 35.613281 53.375 C 35.410156 53.375 35.355469 53.683594 35.355469 55.089844 C 35.355469 56.144531 35.289062 56.855469 35.167969 56.925781 C 34.960938 57.066406 34.328125 56.457031 34.328125 56.128906 C 34.328125 56.007812 34.277344 55.972656 34.207031 56.023438 C 34.15625 56.09375 33.984375 55.957031 33.828125 55.730469 C 32.320312 53.425781 31.957031 53.0625 31.667969 53.546875 Z M 31.667969 53.546875 "/>
<path style=" stroke:none;fill-rule:nonzero;fill:rgb(0%,0%,0%);fill-opacity:1;" d="M 37.621094 55.902344 L 37.675781 58.484375 L 38.910156 58.539062 C 40.523438 58.605469 41.433594 58.15625 42.035156 57.066406 C 42.308594 56.511719 42.257812 55.382812 41.929688 54.792969 C 41.414062 53.875 40.710938 53.546875 39.066406 53.425781 L 37.570312 53.320312 Z M 40.847656 54.328125 C 40.96875 54.464844 41.125 54.535156 41.210938 54.484375 C 41.296875 54.429688 41.347656 54.484375 41.332031 54.621094 C 41.296875 54.742188 41.363281 54.828125 41.449219 54.8125 C 41.671875 54.777344 41.605469 56.804688 41.382812 57.082031 C 41.277344 57.203125 41.226562 57.359375 41.277344 57.410156 C 41.332031 57.480469 41.3125 57.496094 41.246094 57.445312 C 41.191406 57.394531 40.96875 57.515625 40.765625 57.707031 C 40.4375 58 40.199219 58.070312 39.375 58.015625 L 38.359375 57.964844 L 38.308594 56.007812 L 38.257812 54.066406 L 39.441406 54.066406 C 40.28125 54.066406 40.695312 54.136719 40.847656 54.328125 Z M 40.847656 54.328125 "/>
<path style=" stroke:none;fill-rule:nonzero;fill:rgb(0%,0%,0%);fill-opacity:1;" d="M 43.992188 53.496094 C 43.871094 53.546875 43.785156 54.414062 43.785156 56.078125 C 43.75 58.46875 43.765625 58.570312 44.09375 58.570312 C 44.386719 58.570312 44.4375 58.433594 44.488281 57.652344 C 44.539062 56.769531 44.558594 56.753906 45.140625 56.664062 C 45.707031 56.578125 45.777344 56.632812 46.480469 57.566406 C 46.875 58.121094 47.285156 58.570312 47.371094 58.570312 C 47.679688 58.570312 47.542969 58.035156 47.113281 57.566406 C 46.597656 57.011719 46.566406 56.5625 47.011719 56.441406 C 47.441406 56.335938 47.9375 55.558594 47.9375 55.003906 C 47.9375 54.1875 47.558594 53.738281 46.789062 53.652344 C 45.671875 53.511719 44.195312 53.425781 43.992188 53.496094 Z M 46.992188 54.5 C 47.441406 54.933594 47.390625 55.679688 46.890625 55.902344 C 46.273438 56.164062 45.226562 56.285156 44.847656 56.128906 C 44.503906 56.007812 44.453125 55.867188 44.453125 55.035156 L 44.453125 54.082031 L 45.105469 54.03125 C 46.03125 53.929688 46.546875 54.066406 46.992188 54.5 Z M 46.992188 54.5 "/>
<path style=" stroke:none;fill-rule:nonzero;fill:rgb(0%,0%,0%);fill-opacity:1;" d="M 49.121094 53.53125 C 48.949219 53.632812 48.96875 53.71875 49.175781 53.894531 C 49.3125 54.015625 49.429688 54.1875 49.429688 54.292969 C 49.429688 54.378906 49.621094 54.726562 49.859375 55.035156 C 50.101562 55.347656 50.289062 55.679688 50.289062 55.78125 C 50.289062 55.886719 50.359375 55.972656 50.445312 55.972656 C 50.703125 55.972656 50.957031 56.976562 50.855469 57.617188 C 50.769531 58.207031 50.992188 58.746094 51.335938 58.746094 C 51.421875 58.746094 51.492188 58.261719 51.492188 57.652344 C 51.492188 56.648438 51.542969 56.492188 52.296875 55.367188 C 52.742188 54.691406 53.171875 54.117188 53.242188 54.101562 C 53.535156 53.980469 53.363281 53.546875 53.035156 53.546875 C 52.847656 53.546875 52.691406 53.632812 52.691406 53.738281 C 52.691406 54.015625 51.421875 55.78125 51.214844 55.800781 C 51.113281 55.800781 50.703125 55.296875 50.308594 54.671875 C 49.5 53.425781 49.414062 53.339844 49.121094 53.53125 Z M 49.121094 53.53125 "/>
</g>
</svg>
